# xmcd
# 
# Track frame offsets:
#     150
#     2960
#     31702
#     64535
#     97110
#     121647
#     149835
#     180312
#     218030
# 
# Disc length: 3456
# 
# Revision: 4
# Processed by: cddbd v1.5.2PL0 Copyright (c) Steve Scherf et al.
# Submitted via: fre:ac v1.1beta2
# 
DISCID=740d7e09
DTITLE=Phil Upchurch - Rhapsody and Blues
DYEAR=1998
DGENRE=Fusion
TTITLE0=Intro
TTITLE1=516
TTITLE2=Whatever Happened to the Blues
TTITLE3=Black Gold
TTITLE4=12/25
TTITLE5=Amber
TTITLE6=Name of the Game
TTITLE7=6 to 4
TTITLE8=Everything Is Everything
EXTD=
EXTT0=
EXTT1=
EXTT2=
EXTT3=
EXTT4=
EXTT5=
EXTT6=
EXTT7=
EXTT8=
PLAYORDER=
